<mxfile host="app.diagrams.net" modified="2023-07-06T06:53:22.402Z" agent="Mozilla/5.0 (Macintosh; Intel Mac OS X 10_15_7) AppleWebKit/537.36 (KHTML, like Gecko) Chrome/114.0.0.0 Safari/537.36" etag="y3xik8cYN3ms5NNyOSRI" version="21.5.2" type="device">
  <diagram name="第 1 页" id="Bkp3eGtqOmqKwrNxw4wR">
    <mxGraphModel dx="1434" dy="796" grid="1" gridSize="10" guides="1" tooltips="1" connect="1" arrows="1" fold="1" page="0" pageScale="1" pageWidth="827" pageHeight="1169" math="0" shadow="0">
      <root>
        <mxCell id="0" />
        <mxCell id="1" parent="0" />
        <mxCell id="cBfS-ct6ACyOrEiCltsc-1" value="" style="endArrow=none;html=1;rounded=0;" parent="1" edge="1">
          <mxGeometry width="50" height="50" relative="1" as="geometry">
            <mxPoint x="120" y="400" as="sourcePoint" />
            <mxPoint x="120" y="230" as="targetPoint" />
          </mxGeometry>
        </mxCell>
        <mxCell id="cBfS-ct6ACyOrEiCltsc-2" value="" style="endArrow=none;html=1;rounded=0;" parent="1" edge="1">
          <mxGeometry width="50" height="50" relative="1" as="geometry">
            <mxPoint x="1370" y="1430" as="sourcePoint" />
            <mxPoint x="1370" y="230" as="targetPoint" />
          </mxGeometry>
        </mxCell>
        <mxCell id="cBfS-ct6ACyOrEiCltsc-3" value="" style="endArrow=classic;startArrow=classic;html=1;rounded=0;" parent="1" edge="1">
          <mxGeometry width="50" height="50" relative="1" as="geometry">
            <mxPoint x="120" y="250" as="sourcePoint" />
            <mxPoint x="1370" y="250" as="targetPoint" />
          </mxGeometry>
        </mxCell>
        <mxCell id="cBfS-ct6ACyOrEiCltsc-4" value="" style="endArrow=none;html=1;rounded=0;" parent="1" edge="1">
          <mxGeometry width="50" height="50" relative="1" as="geometry">
            <mxPoint x="260" y="1430" as="sourcePoint" />
            <mxPoint x="260" y="300" as="targetPoint" />
          </mxGeometry>
        </mxCell>
        <mxCell id="cBfS-ct6ACyOrEiCltsc-5" value="" style="endArrow=classic;startArrow=classic;html=1;rounded=0;" parent="1" edge="1">
          <mxGeometry width="50" height="50" relative="1" as="geometry">
            <mxPoint x="120" y="320" as="sourcePoint" />
            <mxPoint x="170" y="320" as="targetPoint" />
          </mxGeometry>
        </mxCell>
        <mxCell id="cBfS-ct6ACyOrEiCltsc-6" value="" style="endArrow=none;html=1;rounded=0;" parent="1" edge="1">
          <mxGeometry width="50" height="50" relative="1" as="geometry">
            <mxPoint x="170" y="330" as="sourcePoint" />
            <mxPoint x="170" y="310" as="targetPoint" />
          </mxGeometry>
        </mxCell>
        <mxCell id="cBfS-ct6ACyOrEiCltsc-7" value="" style="endArrow=classic;startArrow=classic;html=1;rounded=0;" parent="1" edge="1">
          <mxGeometry width="50" height="50" relative="1" as="geometry">
            <mxPoint x="170" y="320" as="sourcePoint" />
            <mxPoint x="260" y="320" as="targetPoint" />
          </mxGeometry>
        </mxCell>
        <mxCell id="41Y5D_0qlLmA0E3q2bah-1" value="" style="endArrow=classic;startArrow=classic;html=1;rounded=0;dashed=1;dashPattern=1 1;" edge="1" parent="1">
          <mxGeometry width="50" height="50" relative="1" as="geometry">
            <mxPoint x="120" y="390" as="sourcePoint" />
            <mxPoint x="260" y="390" as="targetPoint" />
          </mxGeometry>
        </mxCell>
        <mxCell id="41Y5D_0qlLmA0E3q2bah-2" value="" style="endArrow=classic;startArrow=classic;html=1;rounded=0;dashed=1;dashPattern=1 1;" edge="1" parent="1">
          <mxGeometry width="50" height="50" relative="1" as="geometry">
            <mxPoint x="260" y="390" as="sourcePoint" />
            <mxPoint x="1370" y="390" as="targetPoint" />
          </mxGeometry>
        </mxCell>
        <mxCell id="41Y5D_0qlLmA0E3q2bah-3" value="&lt;font style=&quot;font-size: 14px;&quot;&gt;80M 的硬盘&lt;/font&gt;" style="text;html=1;align=center;verticalAlign=middle;resizable=0;points=[];autosize=1;strokeColor=none;fillColor=none;" vertex="1" parent="1">
          <mxGeometry x="650" y="190" width="100" height="30" as="geometry" />
        </mxCell>
        <mxCell id="41Y5D_0qlLmA0E3q2bah-4" value="&lt;font style=&quot;font-size: 14px;&quot;&gt;MBR分区表&lt;/font&gt;" style="text;html=1;align=center;verticalAlign=middle;resizable=0;points=[];autosize=1;strokeColor=none;fillColor=none;" vertex="1" parent="1">
          <mxGeometry y="300" width="100" height="30" as="geometry" />
        </mxCell>
        <mxCell id="41Y5D_0qlLmA0E3q2bah-5" value="偏移&lt;br&gt;扇区数&lt;br&gt;2048" style="text;html=1;align=center;verticalAlign=middle;resizable=0;points=[];autosize=1;strokeColor=none;fillColor=none;" vertex="1" parent="1">
          <mxGeometry x="116" y="264" width="60" height="60" as="geometry" />
        </mxCell>
        <mxCell id="41Y5D_0qlLmA0E3q2bah-6" value="主分区&lt;br&gt;hd80M.img1&lt;br&gt;扇区数&lt;br&gt;8192" style="text;html=1;align=center;verticalAlign=middle;resizable=0;points=[];autosize=1;strokeColor=none;fillColor=none;" vertex="1" parent="1">
          <mxGeometry x="170" y="254" width="90" height="70" as="geometry" />
        </mxCell>
        <mxCell id="41Y5D_0qlLmA0E3q2bah-7" value="总扩展扇区&lt;br&gt;hd80M.img2&lt;br&gt;偏移扇区数&lt;br&gt;10240" style="text;html=1;align=center;verticalAlign=middle;resizable=0;points=[];autosize=1;strokeColor=none;fillColor=none;" vertex="1" parent="1">
          <mxGeometry x="146" y="326" width="90" height="70" as="geometry" />
        </mxCell>
        <mxCell id="41Y5D_0qlLmA0E3q2bah-8" value="总扩展分区&lt;br&gt;hd80M.img2&lt;br&gt;扇区数&lt;br&gt;153056" style="text;html=1;align=center;verticalAlign=middle;resizable=0;points=[];autosize=1;strokeColor=none;fillColor=none;" vertex="1" parent="1">
          <mxGeometry x="710" y="316" width="90" height="70" as="geometry" />
        </mxCell>
        <mxCell id="41Y5D_0qlLmA0E3q2bah-9" value="" style="endArrow=none;html=1;rounded=0;" edge="1" parent="1">
          <mxGeometry width="50" height="50" relative="1" as="geometry">
            <mxPoint x="390" y="620" as="sourcePoint" />
            <mxPoint x="390" y="440" as="targetPoint" />
          </mxGeometry>
        </mxCell>
        <mxCell id="41Y5D_0qlLmA0E3q2bah-10" value="" style="endArrow=classic;startArrow=classic;html=1;rounded=0;" edge="1" parent="1">
          <mxGeometry width="50" height="50" relative="1" as="geometry">
            <mxPoint x="260" y="460" as="sourcePoint" />
            <mxPoint x="300" y="460" as="targetPoint" />
          </mxGeometry>
        </mxCell>
        <mxCell id="41Y5D_0qlLmA0E3q2bah-11" value="" style="endArrow=classic;startArrow=classic;html=1;rounded=0;" edge="1" parent="1">
          <mxGeometry width="50" height="50" relative="1" as="geometry">
            <mxPoint x="300" y="460" as="sourcePoint" />
            <mxPoint x="390" y="460" as="targetPoint" />
          </mxGeometry>
        </mxCell>
        <mxCell id="41Y5D_0qlLmA0E3q2bah-12" value="" style="endArrow=none;html=1;rounded=0;" edge="1" parent="1">
          <mxGeometry width="50" height="50" relative="1" as="geometry">
            <mxPoint x="300" y="470" as="sourcePoint" />
            <mxPoint x="300" y="450" as="targetPoint" />
          </mxGeometry>
        </mxCell>
        <mxCell id="41Y5D_0qlLmA0E3q2bah-13" value="偏移&lt;br&gt;扇区数&lt;br&gt;2048" style="text;html=1;align=center;verticalAlign=middle;resizable=0;points=[];autosize=1;strokeColor=none;fillColor=none;" vertex="1" parent="1">
          <mxGeometry x="250" y="403" width="60" height="60" as="geometry" />
        </mxCell>
        <mxCell id="41Y5D_0qlLmA0E3q2bah-14" value="逻辑分区&lt;br&gt;hd80M.img5&lt;br&gt;扇区数&lt;br&gt;10240" style="text;html=1;align=center;verticalAlign=middle;resizable=0;points=[];autosize=1;strokeColor=none;fillColor=none;" vertex="1" parent="1">
          <mxGeometry x="297" y="395" width="90" height="70" as="geometry" />
        </mxCell>
        <mxCell id="41Y5D_0qlLmA0E3q2bah-15" value="" style="endArrow=none;html=1;rounded=0;" edge="1" parent="1">
          <mxGeometry width="50" height="50" relative="1" as="geometry">
            <mxPoint x="520" y="820" as="sourcePoint" />
            <mxPoint x="520" y="490" as="targetPoint" />
          </mxGeometry>
        </mxCell>
        <mxCell id="41Y5D_0qlLmA0E3q2bah-16" value="" style="endArrow=classic;startArrow=classic;html=1;rounded=0;dashed=1;dashPattern=1 2;" edge="1" parent="1">
          <mxGeometry width="50" height="50" relative="1" as="geometry">
            <mxPoint x="260" y="540" as="sourcePoint" />
            <mxPoint x="390" y="540" as="targetPoint" />
          </mxGeometry>
        </mxCell>
        <mxCell id="41Y5D_0qlLmA0E3q2bah-17" value="" style="endArrow=none;html=1;rounded=0;" edge="1" parent="1">
          <mxGeometry width="50" height="50" relative="1" as="geometry">
            <mxPoint x="448" y="630" as="sourcePoint" />
            <mxPoint x="448" y="590" as="targetPoint" />
          </mxGeometry>
        </mxCell>
        <mxCell id="41Y5D_0qlLmA0E3q2bah-18" value="" style="endArrow=classic;startArrow=classic;html=1;rounded=0;dashed=1;dashPattern=1 2;" edge="1" parent="1">
          <mxGeometry width="50" height="50" relative="1" as="geometry">
            <mxPoint x="387" y="540" as="sourcePoint" />
            <mxPoint x="520" y="540" as="targetPoint" />
          </mxGeometry>
        </mxCell>
        <mxCell id="41Y5D_0qlLmA0E3q2bah-19" value="下一个子扩展分区&lt;br&gt;在总扩展分区中&lt;br&gt;偏移扇区数&lt;br&gt;12288" style="text;html=1;align=center;verticalAlign=middle;resizable=0;points=[];autosize=1;strokeColor=none;fillColor=none;" vertex="1" parent="1">
          <mxGeometry x="262" y="474" width="120" height="70" as="geometry" />
        </mxCell>
        <mxCell id="41Y5D_0qlLmA0E3q2bah-20" value="下一个子扩展分区&lt;br&gt;扇区数&lt;br&gt;14336" style="text;html=1;align=center;verticalAlign=middle;resizable=0;points=[];autosize=1;strokeColor=none;fillColor=none;" vertex="1" parent="1">
          <mxGeometry x="394" y="487" width="120" height="60" as="geometry" />
        </mxCell>
        <mxCell id="41Y5D_0qlLmA0E3q2bah-21" value="" style="endArrow=classic;startArrow=classic;html=1;rounded=0;" edge="1" parent="1">
          <mxGeometry width="50" height="50" relative="1" as="geometry">
            <mxPoint x="390" y="610" as="sourcePoint" />
            <mxPoint x="450" y="610" as="targetPoint" />
          </mxGeometry>
        </mxCell>
        <mxCell id="41Y5D_0qlLmA0E3q2bah-22" value="偏移&lt;br&gt;扇区数&lt;br&gt;2048" style="text;html=1;align=center;verticalAlign=middle;resizable=0;points=[];autosize=1;strokeColor=none;fillColor=none;" vertex="1" parent="1">
          <mxGeometry x="388" y="555" width="60" height="60" as="geometry" />
        </mxCell>
        <mxCell id="41Y5D_0qlLmA0E3q2bah-23" value="" style="endArrow=classic;startArrow=classic;html=1;rounded=0;" edge="1" parent="1">
          <mxGeometry width="50" height="50" relative="1" as="geometry">
            <mxPoint x="450" y="610" as="sourcePoint" />
            <mxPoint x="520" y="610" as="targetPoint" />
          </mxGeometry>
        </mxCell>
        <mxCell id="41Y5D_0qlLmA0E3q2bah-24" value="逻辑分区&lt;br&gt;hd80M.img6&lt;br&gt;扇区数&lt;br&gt;12288" style="text;html=1;align=center;verticalAlign=middle;resizable=0;points=[];autosize=1;strokeColor=none;fillColor=none;" vertex="1" parent="1">
          <mxGeometry x="437" y="545" width="90" height="70" as="geometry" />
        </mxCell>
        <mxCell id="41Y5D_0qlLmA0E3q2bah-25" value="" style="endArrow=classic;startArrow=classic;html=1;rounded=0;dashed=1;dashPattern=1 2;" edge="1" parent="1">
          <mxGeometry width="50" height="50" relative="1" as="geometry">
            <mxPoint x="260" y="690" as="sourcePoint" />
            <mxPoint x="520" y="690" as="targetPoint" />
          </mxGeometry>
        </mxCell>
        <mxCell id="41Y5D_0qlLmA0E3q2bah-26" value="下一个子扩展分区&lt;br&gt;在总扩展分区中&lt;br&gt;偏移扇区数&lt;br&gt;26624" style="text;html=1;align=center;verticalAlign=middle;resizable=0;points=[];autosize=1;strokeColor=none;fillColor=none;" vertex="1" parent="1">
          <mxGeometry x="319" y="625" width="120" height="70" as="geometry" />
        </mxCell>
        <mxCell id="41Y5D_0qlLmA0E3q2bah-27" value="" style="endArrow=none;html=1;rounded=0;" edge="1" parent="1">
          <mxGeometry width="50" height="50" relative="1" as="geometry">
            <mxPoint x="690" y="1010" as="sourcePoint" />
            <mxPoint x="690" y="640" as="targetPoint" />
          </mxGeometry>
        </mxCell>
        <mxCell id="41Y5D_0qlLmA0E3q2bah-28" value="" style="endArrow=classic;startArrow=classic;html=1;rounded=0;dashed=1;dashPattern=1 2;" edge="1" parent="1">
          <mxGeometry width="50" height="50" relative="1" as="geometry">
            <mxPoint x="520" y="690" as="sourcePoint" />
            <mxPoint x="690" y="690" as="targetPoint" />
          </mxGeometry>
        </mxCell>
        <mxCell id="41Y5D_0qlLmA0E3q2bah-29" value="下一个子扩展分区&lt;br&gt;扇区数&lt;br&gt;16384" style="text;html=1;align=center;verticalAlign=middle;resizable=0;points=[];autosize=1;strokeColor=none;fillColor=none;" vertex="1" parent="1">
          <mxGeometry x="544" y="636" width="120" height="60" as="geometry" />
        </mxCell>
        <mxCell id="41Y5D_0qlLmA0E3q2bah-30" value="" style="endArrow=classic;startArrow=classic;html=1;rounded=0;entryX=1.017;entryY=0.917;entryDx=0;entryDy=0;entryPerimeter=0;" edge="1" parent="1" target="41Y5D_0qlLmA0E3q2bah-31">
          <mxGeometry width="50" height="50" relative="1" as="geometry">
            <mxPoint x="520" y="790" as="sourcePoint" />
            <mxPoint x="600" y="790" as="targetPoint" />
          </mxGeometry>
        </mxCell>
        <mxCell id="41Y5D_0qlLmA0E3q2bah-31" value="偏移&lt;br&gt;扇区数&lt;br&gt;2048" style="text;html=1;align=center;verticalAlign=middle;resizable=0;points=[];autosize=1;strokeColor=none;fillColor=none;" vertex="1" parent="1">
          <mxGeometry x="526" y="735" width="60" height="60" as="geometry" />
        </mxCell>
        <mxCell id="41Y5D_0qlLmA0E3q2bah-32" value="" style="endArrow=classic;startArrow=classic;html=1;rounded=0;" edge="1" parent="1">
          <mxGeometry width="50" height="50" relative="1" as="geometry">
            <mxPoint x="586" y="790" as="sourcePoint" />
            <mxPoint x="690" y="790" as="targetPoint" />
          </mxGeometry>
        </mxCell>
        <mxCell id="41Y5D_0qlLmA0E3q2bah-33" value="" style="endArrow=none;html=1;rounded=0;" edge="1" parent="1">
          <mxGeometry width="50" height="50" relative="1" as="geometry">
            <mxPoint x="587" y="800" as="sourcePoint" />
            <mxPoint x="587" y="780" as="targetPoint" />
          </mxGeometry>
        </mxCell>
        <mxCell id="41Y5D_0qlLmA0E3q2bah-34" value="逻辑分区&lt;br&gt;hd80M.img7&lt;br&gt;扇区数&lt;br&gt;14336" style="text;html=1;align=center;verticalAlign=middle;resizable=0;points=[];autosize=1;strokeColor=none;fillColor=none;" vertex="1" parent="1">
          <mxGeometry x="592" y="726" width="90" height="70" as="geometry" />
        </mxCell>
        <mxCell id="41Y5D_0qlLmA0E3q2bah-35" value="" style="endArrow=classic;startArrow=classic;html=1;rounded=0;dashed=1;dashPattern=1 1;" edge="1" parent="1">
          <mxGeometry width="50" height="50" relative="1" as="geometry">
            <mxPoint x="260" y="900" as="sourcePoint" />
            <mxPoint x="690" y="900" as="targetPoint" />
          </mxGeometry>
        </mxCell>
        <mxCell id="41Y5D_0qlLmA0E3q2bah-36" value="下一个子扩展分区&lt;br&gt;在总扩展分区中&lt;br&gt;偏移扇区数&lt;br&gt;43008" style="text;html=1;align=center;verticalAlign=middle;resizable=0;points=[];autosize=1;strokeColor=none;fillColor=none;" vertex="1" parent="1">
          <mxGeometry x="410" y="832" width="120" height="70" as="geometry" />
        </mxCell>
        <mxCell id="41Y5D_0qlLmA0E3q2bah-37" value="" style="endArrow=none;html=1;rounded=0;" edge="1" parent="1">
          <mxGeometry width="50" height="50" relative="1" as="geometry">
            <mxPoint x="880" y="1200" as="sourcePoint" />
            <mxPoint x="880" y="870" as="targetPoint" />
          </mxGeometry>
        </mxCell>
        <mxCell id="41Y5D_0qlLmA0E3q2bah-38" value="" style="endArrow=classic;startArrow=classic;html=1;rounded=0;dashed=1;dashPattern=1 1;" edge="1" parent="1">
          <mxGeometry width="50" height="50" relative="1" as="geometry">
            <mxPoint x="690" y="900" as="sourcePoint" />
            <mxPoint x="880" y="900" as="targetPoint" />
          </mxGeometry>
        </mxCell>
        <mxCell id="41Y5D_0qlLmA0E3q2bah-39" value="下一个子扩展分区&lt;br&gt;扇区数&lt;br&gt;18432" style="text;html=1;align=center;verticalAlign=middle;resizable=0;points=[];autosize=1;strokeColor=none;fillColor=none;" vertex="1" parent="1">
          <mxGeometry x="723" y="845" width="120" height="60" as="geometry" />
        </mxCell>
        <mxCell id="41Y5D_0qlLmA0E3q2bah-40" value="" style="endArrow=classic;startArrow=classic;html=1;rounded=0;" edge="1" parent="1">
          <mxGeometry width="50" height="50" relative="1" as="geometry">
            <mxPoint x="690" y="970" as="sourcePoint" />
            <mxPoint x="760" y="970" as="targetPoint" />
          </mxGeometry>
        </mxCell>
        <mxCell id="41Y5D_0qlLmA0E3q2bah-41" value="" style="endArrow=classic;startArrow=classic;html=1;rounded=0;" edge="1" parent="1">
          <mxGeometry width="50" height="50" relative="1" as="geometry">
            <mxPoint x="760" y="970" as="sourcePoint" />
            <mxPoint x="880" y="970" as="targetPoint" />
          </mxGeometry>
        </mxCell>
        <mxCell id="41Y5D_0qlLmA0E3q2bah-42" value="" style="endArrow=none;html=1;rounded=0;" edge="1" parent="1">
          <mxGeometry width="50" height="50" relative="1" as="geometry">
            <mxPoint x="760" y="980" as="sourcePoint" />
            <mxPoint x="760" y="960" as="targetPoint" />
          </mxGeometry>
        </mxCell>
        <mxCell id="41Y5D_0qlLmA0E3q2bah-43" value="偏移&lt;br&gt;扇区数&lt;br&gt;2048" style="text;html=1;align=center;verticalAlign=middle;resizable=0;points=[];autosize=1;strokeColor=none;fillColor=none;" vertex="1" parent="1">
          <mxGeometry x="695" y="915" width="60" height="60" as="geometry" />
        </mxCell>
        <mxCell id="41Y5D_0qlLmA0E3q2bah-44" value="逻辑分区&lt;br&gt;hd80M.img8&lt;br&gt;扇区数&lt;br&gt;16384" style="text;html=1;align=center;verticalAlign=middle;resizable=0;points=[];autosize=1;strokeColor=none;fillColor=none;" vertex="1" parent="1">
          <mxGeometry x="774" y="906" width="90" height="70" as="geometry" />
        </mxCell>
        <mxCell id="41Y5D_0qlLmA0E3q2bah-45" value="" style="endArrow=classic;startArrow=classic;html=1;rounded=0;dashed=1;dashPattern=1 1;" edge="1" parent="1">
          <mxGeometry width="50" height="50" relative="1" as="geometry">
            <mxPoint x="260" y="1070" as="sourcePoint" />
            <mxPoint x="880" y="1070" as="targetPoint" />
          </mxGeometry>
        </mxCell>
        <mxCell id="41Y5D_0qlLmA0E3q2bah-46" value="下一个子扩展分区&lt;br&gt;在总扩展分区中&lt;br&gt;偏移扇区数&lt;br&gt;61440" style="text;html=1;align=center;verticalAlign=middle;resizable=0;points=[];autosize=1;strokeColor=none;fillColor=none;" vertex="1" parent="1">
          <mxGeometry x="520" y="1006" width="120" height="70" as="geometry" />
        </mxCell>
        <mxCell id="41Y5D_0qlLmA0E3q2bah-47" value="" style="endArrow=none;html=1;rounded=0;" edge="1" parent="1">
          <mxGeometry width="50" height="50" relative="1" as="geometry">
            <mxPoint x="1080" y="1360" as="sourcePoint" />
            <mxPoint x="1080" y="1016" as="targetPoint" />
          </mxGeometry>
        </mxCell>
        <mxCell id="41Y5D_0qlLmA0E3q2bah-49" value="" style="endArrow=classic;startArrow=classic;html=1;rounded=0;dashed=1;dashPattern=1 1;" edge="1" parent="1">
          <mxGeometry width="50" height="50" relative="1" as="geometry">
            <mxPoint x="880" y="1070" as="sourcePoint" />
            <mxPoint x="1080" y="1070" as="targetPoint" />
          </mxGeometry>
        </mxCell>
        <mxCell id="41Y5D_0qlLmA0E3q2bah-50" value="下一个子扩展分区&lt;br&gt;扇区数&lt;br&gt;20480" style="text;html=1;align=center;verticalAlign=middle;resizable=0;points=[];autosize=1;strokeColor=none;fillColor=none;" vertex="1" parent="1">
          <mxGeometry x="910" y="1003" width="120" height="60" as="geometry" />
        </mxCell>
        <mxCell id="41Y5D_0qlLmA0E3q2bah-51" value="" style="endArrow=classic;startArrow=classic;html=1;rounded=0;" edge="1" parent="1">
          <mxGeometry width="50" height="50" relative="1" as="geometry">
            <mxPoint x="880" y="1160" as="sourcePoint" />
            <mxPoint x="950" y="1160" as="targetPoint" />
          </mxGeometry>
        </mxCell>
        <mxCell id="41Y5D_0qlLmA0E3q2bah-52" value="" style="endArrow=classic;startArrow=classic;html=1;rounded=0;" edge="1" parent="1">
          <mxGeometry width="50" height="50" relative="1" as="geometry">
            <mxPoint x="950" y="1160" as="sourcePoint" />
            <mxPoint x="1080" y="1160" as="targetPoint" />
          </mxGeometry>
        </mxCell>
        <mxCell id="41Y5D_0qlLmA0E3q2bah-53" value="" style="endArrow=none;html=1;rounded=0;" edge="1" parent="1">
          <mxGeometry width="50" height="50" relative="1" as="geometry">
            <mxPoint x="950" y="1170" as="sourcePoint" />
            <mxPoint x="950" y="1150" as="targetPoint" />
          </mxGeometry>
        </mxCell>
        <mxCell id="41Y5D_0qlLmA0E3q2bah-54" value="偏移&lt;br&gt;扇区数&lt;br&gt;2048" style="text;html=1;align=center;verticalAlign=middle;resizable=0;points=[];autosize=1;strokeColor=none;fillColor=none;" vertex="1" parent="1">
          <mxGeometry x="884" y="1103" width="60" height="60" as="geometry" />
        </mxCell>
        <mxCell id="41Y5D_0qlLmA0E3q2bah-55" value="逻辑分区&lt;br&gt;hd80M.img9&lt;br&gt;扇区数&lt;br&gt;18432" style="text;html=1;align=center;verticalAlign=middle;resizable=0;points=[];autosize=1;strokeColor=none;fillColor=none;" vertex="1" parent="1">
          <mxGeometry x="968" y="1093" width="90" height="70" as="geometry" />
        </mxCell>
        <mxCell id="41Y5D_0qlLmA0E3q2bah-56" value="" style="endArrow=classic;startArrow=classic;html=1;rounded=0;dashed=1;dashPattern=1 2;" edge="1" parent="1">
          <mxGeometry width="50" height="50" relative="1" as="geometry">
            <mxPoint x="260" y="1250" as="sourcePoint" />
            <mxPoint x="1080" y="1250" as="targetPoint" />
          </mxGeometry>
        </mxCell>
        <mxCell id="41Y5D_0qlLmA0E3q2bah-57" value="下一个子扩展分区&lt;br&gt;在总扩展分区中&lt;br&gt;偏移扇区数&lt;br&gt;81920" style="text;html=1;align=center;verticalAlign=middle;resizable=0;points=[];autosize=1;strokeColor=none;fillColor=none;" vertex="1" parent="1">
          <mxGeometry x="611" y="1183" width="120" height="70" as="geometry" />
        </mxCell>
        <mxCell id="41Y5D_0qlLmA0E3q2bah-59" value="" style="endArrow=classic;startArrow=classic;html=1;rounded=0;dashed=1;dashPattern=1 2;" edge="1" parent="1">
          <mxGeometry width="50" height="50" relative="1" as="geometry">
            <mxPoint x="1080" y="1250" as="sourcePoint" />
            <mxPoint x="1370" y="1250" as="targetPoint" />
          </mxGeometry>
        </mxCell>
        <mxCell id="41Y5D_0qlLmA0E3q2bah-60" value="下一个子扩展分区&lt;br&gt;扇区数&lt;br&gt;71136" style="text;html=1;align=center;verticalAlign=middle;resizable=0;points=[];autosize=1;strokeColor=none;fillColor=none;" vertex="1" parent="1">
          <mxGeometry x="1159" y="1195" width="120" height="60" as="geometry" />
        </mxCell>
        <mxCell id="41Y5D_0qlLmA0E3q2bah-61" value="" style="endArrow=classic;startArrow=classic;html=1;rounded=0;" edge="1" parent="1">
          <mxGeometry width="50" height="50" relative="1" as="geometry">
            <mxPoint x="1080" y="1320" as="sourcePoint" />
            <mxPoint x="1160" y="1320" as="targetPoint" />
          </mxGeometry>
        </mxCell>
        <mxCell id="41Y5D_0qlLmA0E3q2bah-62" value="偏移&lt;br&gt;扇区数&lt;br&gt;2048" style="text;html=1;align=center;verticalAlign=middle;resizable=0;points=[];autosize=1;strokeColor=none;fillColor=none;" vertex="1" parent="1">
          <mxGeometry x="1090" y="1266" width="60" height="60" as="geometry" />
        </mxCell>
        <mxCell id="41Y5D_0qlLmA0E3q2bah-63" value="" style="endArrow=classic;startArrow=classic;html=1;rounded=0;" edge="1" parent="1">
          <mxGeometry width="50" height="50" relative="1" as="geometry">
            <mxPoint x="1160" y="1320" as="sourcePoint" />
            <mxPoint x="1370" y="1320" as="targetPoint" />
          </mxGeometry>
        </mxCell>
        <mxCell id="41Y5D_0qlLmA0E3q2bah-64" value="" style="endArrow=none;html=1;rounded=0;" edge="1" parent="1">
          <mxGeometry width="50" height="50" relative="1" as="geometry">
            <mxPoint x="1160" y="1340" as="sourcePoint" />
            <mxPoint x="1160" y="1300" as="targetPoint" />
          </mxGeometry>
        </mxCell>
        <mxCell id="41Y5D_0qlLmA0E3q2bah-65" value="逻辑分区&lt;br&gt;hd80M.img10&lt;br&gt;扇区数&lt;br&gt;69088" style="text;html=1;align=center;verticalAlign=middle;resizable=0;points=[];autosize=1;strokeColor=none;fillColor=none;" vertex="1" parent="1">
          <mxGeometry x="1215" y="1255" width="100" height="70" as="geometry" />
        </mxCell>
      </root>
    </mxGraphModel>
  </diagram>
</mxfile>
